<svg id="Capa_1" data-name="Capa 1" xmlns="http://www.w3.org/2000/svg" viewBox="0 0 280.4 444.9"><title>arrow-next</title><path d="M114.3,10.5,92.9,31.9a36.78,36.78,0,0,0-10.6,26A34.71,34.71,0,0,0,92.9,83.6L231.6,222.4,92.9,361.1a35.1,35.1,0,0,0-10.6,25.7,36.36,36.36,0,0,0,10.6,26l21.4,21.1a35.21,35.21,0,0,0,26,10.9A34.05,34.05,0,0,0,166,434L351.9,248.1a34.05,34.05,0,0,0,10.8-25.7,35.5,35.5,0,0,0-10.8-26L166,10.5A35.1,35.1,0,0,0,140.3-.1,37.21,37.21,0,0,0,114.3,10.5Z" transform="translate(-82.3 0.1)" style="fill:#484647"/></svg>