<svg id="Capa_1" data-name="Capa 1" xmlns="http://www.w3.org/2000/svg" viewBox="0 0 280.42 444.91"><defs><style>.cls-1{fill:#484647;}</style></defs><title>arrow-next</title><path class="cls-1" d="M222.4,0a35.11,35.11,0,0,0-25.7,10.6L10.8,196.5A35.5,35.5,0,0,0,0,222.5a34.06,34.06,0,0,0,10.8,25.7L196.7,434.1a34.09,34.09,0,0,0,25.7,10.8,35.17,35.17,0,0,0,26-10.9l21.4-21.1a36.37,36.37,0,0,0,10.6-26,35.07,35.07,0,0,0-10.6-25.7L131.1,222.5,269.8,83.7A34.72,34.72,0,0,0,280.4,58a36.75,36.75,0,0,0-10.6-26L248.4,10.6A37.21,37.21,0,0,0,222.4,0Z" transform="translate(0.01 0)"/></svg>