<svg id="object" xmlns="http://www.w3.org/2000/svg" viewBox="0 0 222.97 222.97"><defs><style>.cls-1{fill:#B4B4B2;}.cls-2{fill:#fff;}</style></defs><title>faccina</title><circle class="cls-1" cx="111.49" cy="111.49" r="111.49"/><path class="cls-2" d="M264.24,253c0,8.56-6.33,15.51-14.13,15.51S236,261.6,236,253s6.33-15,14.14-15S264.24,244.48,264.24,253Z" transform="translate(-177.03 -158.19)"/><path class="cls-2" d="M313.29,253c0,8.56,6.32,15.51,14.13,15.51s14.14-6.95,14.14-15.51-6.33-15-14.14-15S313.29,244.48,313.29,253Z" transform="translate(-177.03 -158.19)"/><path class="cls-2" d="M240.72,311.35a1.76,1.76,0,0,1,1.79-2.32h92.13a1.61,1.61,0,0,1,1.62,2.27s-9.65,31.92-48.91,31.92S240.72,311.35,240.72,311.35Z" transform="translate(-177.03 -158.19)"/></svg>