<?xml version="1.0" encoding="utf-8"?>
<!-- Generator: Adobe Illustrator 23.0.3, SVG Export Plug-In . SVG Version: 6.00 Build 0)  -->
<svg version="1.1" id="object" xmlns="http://www.w3.org/2000/svg" xmlns:xlink="http://www.w3.org/1999/xlink" x="0px" y="0px"
	 viewBox="0 0 465 223" style="enable-background:new 0 0 465 223;" xml:space="preserve">
<style type="text/css">
	.st0{fill:#F0AF1D;}
	.st1{fill:#FFFFFF;}
	.st2{fill:#BA1F45;}
</style>
<title>faccina</title>
<circle class="st0" cx="111.5" cy="111.5" r="111.5"/>
<path class="st1" d="M87.2,94.8c0,8.6-6.3,15.5-14.1,15.5S59,103.4,59,94.8s6.3-15,14.1-15S87.2,86.3,87.2,94.8z"/>
<path class="st1" d="M136.3,94.8c0,8.6,6.3,15.5,14.1,15.5s14.1-7,14.1-15.5s-6.3-15-14.1-15S136.3,86.3,136.3,94.8z"/>
<path class="st1" d="M63.7,153.2c-0.3-0.9,0.2-1.9,1.1-2.2c0.2-0.1,0.5-0.1,0.7-0.1h92.1c0.9-0.1,1.7,0.6,1.8,1.4
	c0,0.3,0,0.6-0.1,0.8c0,0-9.6,31.9-48.9,31.9S63.7,153.2,63.7,153.2z"/>
<path class="st2" d="M344.8,221.7h16c8.9,0,16-7.1,16-16V134h71.7c8.9,0,16-7.1,16-16v-16c0-8.9-7.1-16-16-16h-71.7V14.9
	c0-8.9-7.1-16-16-16h-16c-8.9,0-16,7.1-16,16v71.7h-71.7c-8.9,0-16,7.1-16,16v16c0,8.9,7.1,16,16,16h71.7v71.7
	C328.8,214.6,335.9,221.7,344.8,221.7z"/>
</svg>
