<svg id="Livello_1" data-name="Livello 1" xmlns="http://www.w3.org/2000/svg" viewBox="0 0 23.71 23.38"><defs><style>.cls-1{fill:#D2234F;}</style></defs><title>close2</title><path class="cls-1" d="M14.59,12.14l9.33-9.2a1.45,1.45,0,0,0,0-2.07,1.5,1.5,0,0,0-2.1,0l-9.32,9.2L3.17.87a1.49,1.49,0,0,0-2.09,0,1.45,1.45,0,0,0,0,2.07l9.32,9.2L1.08,21.33a1.45,1.45,0,0,0,0,2.07,1.48,1.48,0,0,0,1,.43,1.52,1.52,0,0,0,1-.43l9.33-9.2,9.32,9.2a1.5,1.5,0,0,0,2.1,0,1.45,1.45,0,0,0,0-2.07Z" transform="translate(-0.64 -0.45)"/></svg>