<svg id="Livello_1" data-name="Livello 1" xmlns="http://www.w3.org/2000/svg" viewBox="0 0 29.37 29.38"><defs><style>.cls-1{opacity:0.6;isolation:isolate;}.cls-2{fill:#fff;}</style></defs><title>gallery_sx</title><path class="cls-1" d="M.31.31H29.69V29.69H.31Z" transform="translate(-0.31 -0.31)"/><path class="cls-2" d="M11.78,8.7a.78.78,0,0,1,.52-.22.74.74,0,0,1,.52.22l5.52,5.5a.75.75,0,0,1,0,1l-5.52,5.51a.75.75,0,0,1-1,0,.73.73,0,0,1,0-1l5-5-5-5A.74.74,0,0,1,11.78,8.7Z" transform="translate(-0.31 -0.31)"/></svg>