<svg id="Livello_1" data-name="Livello 1" xmlns="http://www.w3.org/2000/svg" viewBox="0 0 15 15"><defs><style>.cls-1{fill:#ba1f45;}</style></defs><title>ico_info</title><path class="cls-1" d="M7.49,0A7.51,7.51,0,1,0,15,7.51,7.5,7.5,0,0,0,7.49,0ZM9.05,11.63,8.13,12a2.45,2.45,0,0,1-.8.12,1.63,1.63,0,0,1-1.09-.34,1.11,1.11,0,0,1-.39-.87,3,3,0,0,1,0-.42q0-.21.09-.48l.48-1.71c0-.16.08-.32.11-.46a2.08,2.08,0,0,0,.05-.41A.62.62,0,0,0,6.47,7,.74.74,0,0,0,6,6.83a1.31,1.31,0,0,0-.38.06L5.24,7l.12-.53c.32-.13.62-.23.91-.33A2.74,2.74,0,0,1,7.09,6a1.57,1.57,0,0,1,1.07.33,1.14,1.14,0,0,1,.38.88c0,.07,0,.2,0,.39a2.56,2.56,0,0,1-.1.51l-.48,1.7a4.68,4.68,0,0,0-.11.47,2.83,2.83,0,0,0,0,.4.58.58,0,0,0,.16.46.84.84,0,0,0,.52.12,1.55,1.55,0,0,0,.4-.06,1.43,1.43,0,0,0,.32-.11ZM9,4.72a1.23,1.23,0,0,1-1.63,0A1,1,0,0,1,7,4a1,1,0,0,1,.33-.76A1.23,1.23,0,0,1,9,3.2,1,1,0,0,1,9.3,4,1,1,0,0,1,9,4.72Z" transform="translate(0.01 0)"/></svg>