<svg id="Livello_1" data-name="Livello 1" xmlns="http://www.w3.org/2000/svg" viewBox="0 0 24.14 26.35"><defs><style>.cls-1{fill:#fff;}</style></defs><title>ico_chiama</title><path class="cls-1" d="M23.3,17.77A6,6,0,0,1,19,19.55H12.46a.65.65,0,0,1-.65-.65,2.83,2.83,0,0,1,2.82-2.82h.63l-4-4a1.74,1.74,0,0,1-.39-.58,1.77,1.77,0,0,1,0-1.38,1.74,1.74,0,0,1,.39-.58A1.8,1.8,0,0,1,12.54,9a1.84,1.84,0,0,1,1.27.51l.88.88.09-.16A2.75,2.75,0,0,1,15,10a1.87,1.87,0,0,1,.7-.43,1.81,1.81,0,0,1,.73-.09,1.49,1.49,0,0,1,.15-.4,1.71,1.71,0,0,1,.32-.44,1.78,1.78,0,0,1,.88-.48,1.68,1.68,0,0,1,.89,0,1.64,1.64,0,0,1,.14-.3,2.88,2.88,0,0,1,.27-.34,1.81,1.81,0,0,1,2.54,0L23.3,9.24a6,6,0,0,1,1.31,2,5.88,5.88,0,0,1,.46,2.31A6,6,0,0,1,23.3,17.77Zm.13-6.08a4.84,4.84,0,0,0-1-1.54L20.71,8.46a.51.51,0,0,0-.36-.15.51.51,0,0,0-.37.15.52.52,0,0,0,0,.73.62.62,0,0,1,.15.21.67.67,0,0,1,0,.24.61.61,0,0,1,0,.24,1,1,0,0,1-.14.22.67.67,0,0,1-.46.18.63.63,0,0,1-.45-.18l-.55-.55a.48.48,0,0,0-.36-.15.49.49,0,0,0-.36.15.45.45,0,0,0-.11.17.43.43,0,0,0,0,.19.54.54,0,0,0,.15.37l.54.54a.64.64,0,0,1,.14.22.6.6,0,0,1,.05.24.69.69,0,0,1-.05.24.6.6,0,0,1-.14.21.64.64,0,0,1-.45.19.68.68,0,0,1-.46-.19l-.81-.82a.52.52,0,0,0-.36-.14.53.53,0,0,0-.37.14.62.62,0,0,0-.11.17.65.65,0,0,0,0,.2.58.58,0,0,0,0,.19.5.5,0,0,0,.11.17L17.26,13a.55.55,0,0,1,.14.21.7.7,0,0,1,.05.25.69.69,0,0,1-.05.24.6.6,0,0,1-.14.21.63.63,0,0,1-.9,0L12.9,10.45a.51.51,0,0,0-.36-.14.55.55,0,0,0-.37.14,1,1,0,0,0-.11.17.58.58,0,0,0,0,.19.65.65,0,0,0,0,.2,1,1,0,0,0,.11.17l5.09,5.09a.67.67,0,0,1,.18.33.68.68,0,0,1,0,.37.63.63,0,0,1-.59.4H14.63a1.5,1.5,0,0,0-.89.29,1.46,1.46,0,0,0-.5.6H19a4.76,4.76,0,0,0,4.39-6.57ZM16.81,7.56a.65.65,0,0,1-.64-.64V6.47h-14v14h14.6a.65.65,0,0,1,.64.64v2.18a3.89,3.89,0,0,1-3.91,3.91H4.84A3.91,3.91,0,0,1,.93,23.26V4.74A3.91,3.91,0,0,1,4.84.83h8.7a3.89,3.89,0,0,1,3.91,3.91V6.92a.65.65,0,0,1-.64.64ZM13.54,2.11H4.84A2.61,2.61,0,0,0,3,2.88a2.65,2.65,0,0,0-.77,1.86v.45h14V4.74a2.63,2.63,0,0,0-2.63-2.63ZM4.84,25.89h8.7a2.65,2.65,0,0,0,1.86-.77,2.61,2.61,0,0,0,.77-1.86V21.72h-14v1.54a2.63,2.63,0,0,0,2.63,2.63Zm4.35-3.27A1.15,1.15,0,0,1,10,23a1.19,1.19,0,0,1,.35.84,1.22,1.22,0,0,1-.35.84,1.18,1.18,0,0,1-.84.34,1.2,1.2,0,0,1-.84-.34A1.21,1.21,0,0,1,8,23.81,1.18,1.18,0,0,1,8.35,23,1.16,1.16,0,0,1,9.19,22.62ZM13.57,4.29a.66.66,0,0,1-.46-.19.64.64,0,0,1-.19-.45.72.72,0,0,1,.18-.46A.67.67,0,0,1,13.56,3h0a.63.63,0,0,1,.45.18.68.68,0,0,1,.19.46.65.65,0,0,1-.64.64Zm-3.29,0H8.1a.65.65,0,0,1-.64-.64.68.68,0,0,1,.19-.46A.63.63,0,0,1,8.1,3h2.18a.63.63,0,0,1,.45.18.68.68,0,0,1,.19.46.65.65,0,0,1-.64.64Z" transform="translate(-0.93 -0.83)"/></svg>