<svg id="Livello_1" data-name="Livello 1" xmlns="http://www.w3.org/2000/svg" viewBox="0 0 22.04 21.65"><defs><style>.cls-1{fill:#fff;}</style></defs><title>ico_sito</title><path class="cls-1" d="M10.16,21.44a10.3,10.3,0,0,1-6-3A13.11,13.11,0,0,1,7,17.07a13.86,13.86,0,0,0,3.14,4.37m2.68,0A13.86,13.86,0,0,0,16,17.07a13,13,0,0,1,2.85,1.41,10.3,10.3,0,0,1-6,3m-1.72-.16a13,13,0,0,1-3.38-4.45,13.62,13.62,0,0,1,3.38-.52v5m.76,0v-5a13.61,13.61,0,0,1,3.37.52,12.89,12.89,0,0,1-3.37,4.45M3.64,17.92a10,10,0,0,1-2.39-6.1H5.81a13.52,13.52,0,0,0,.92,4.56,14.15,14.15,0,0,0-3.09,1.54m3.81-1.78a12.66,12.66,0,0,1-.88-4.32h4.55v3.74a14.5,14.5,0,0,0-3.67.58m8.1,0a14.5,14.5,0,0,0-3.67-.58V11.82h4.55a13.15,13.15,0,0,1-.88,4.32m3.8,1.78a14.08,14.08,0,0,0-3.08-1.54,13.77,13.77,0,0,0,.92-4.56h4.56a9.9,9.9,0,0,1-2.4,6.1M6.57,11.07a12.73,12.73,0,0,1,1-4.66A14,14,0,0,0,11.12,7v4.12H6.57m5.31,0V7a13.9,13.9,0,0,0,3.53-.54,12.94,12.94,0,0,1,1,4.66H11.88m-10.63,0a10,10,0,0,1,2.6-6.34,13.83,13.83,0,0,0,3,1.45,13.72,13.72,0,0,0-1,4.89H1.25m15.94,0a13.73,13.73,0,0,0-1.05-4.89,13.61,13.61,0,0,0,3-1.45,9.93,9.93,0,0,1,2.61,6.34H17.19M11.12,6.2A13.33,13.33,0,0,1,7.9,5.72,13.17,13.17,0,0,1,11.12,1.6V6.2m.76,0V1.6A13.17,13.17,0,0,1,15.1,5.72a13.41,13.41,0,0,1-3.22.48M7.16,5.5A13.51,13.51,0,0,1,4.39,4.18a10.39,10.39,0,0,1,5.77-2.73,13.9,13.9,0,0,0-3,4.05m8.67,0a13.87,13.87,0,0,0-3-4A10.36,10.36,0,0,1,18.6,4.18,13,13,0,0,1,15.83,5.5M11.5.62h-.38A11.12,11.12,0,0,0,3.47,4h0a10.66,10.66,0,0,0-.21,14.58h0l0,0a11.05,11.05,0,0,0,7.83,3.61h.76a11.08,11.08,0,0,0,7.84-3.61v0h0A10.66,10.66,0,0,0,19.53,4h0A11.08,11.08,0,0,0,11.88.63H11.5" transform="translate(-0.48 -0.62)"/></svg>