<svg id="Livello_1" data-name="Livello 1" xmlns="http://www.w3.org/2000/svg" viewBox="0 0 26.6 30.78"><defs><style>.cls-1{fill:#B91F45;}</style></defs><title>menu_offerte</title><path class="cls-1" d="M27.27,27a.8.8,0,0,1-.78.61h-25A.79.79,0,0,1,.73,27a.81.81,0,0,1,.4-.92c3.25-1.74,3.8-5.11,4.44-9,.08-.48.16-1,.25-1.47.77-4.41,2.42-7.58,4.62-9.1a.94.94,0,0,1-.07-.34C10.37,3,12,.61,14,.61S17.63,3,17.63,6.14a.94.94,0,0,1-.07.34c2.2,1.51,3.85,4.69,4.62,9.1.09.5.17,1,.25,1.47.64,3.91,1.2,7.28,4.44,9A.82.82,0,0,1,27.27,27ZM14,2.23c-.89,0-1.86,1.42-2,3.48a5.28,5.28,0,0,1,1.59-.24h.8A5.17,5.17,0,0,1,16,5.71C15.86,3.65,14.89,2.23,14,2.23Zm6.83,15.09-.24-1.45c-.36-2.06-1.88-8.78-6.19-8.78h-.8c-4.31,0-5.83,6.72-6.19,8.78-.09.48-.16,1-.24,1.45C6.63,20.61,6.11,23.76,4,26h20.1C21.89,23.76,21.37,20.61,20.83,17.32ZM11.29,29.76h5.42a.81.81,0,0,1,0,1.62H11.29a.81.81,0,0,1,0-1.62Z" transform="translate(-0.7 -0.61)"/></svg>