<svg id="Livello_1" data-name="Livello 1" xmlns="http://www.w3.org/2000/svg" viewBox="0 0 42 27"><defs><style>.cls-1{fill:#B91F45;}</style></defs><title>menu_camere</title><path class="cls-1" d="M41.39,27a.6.6,0,0,1-.61-.58V21.49l-19,.14H19.06L1.21,21.49v4.93a.59.59,0,0,1-.6.58A.59.59,0,0,1,0,26.42V13.18A3.54,3.54,0,0,1,3.61,9.73H5.7V3.17A3.25,3.25,0,0,1,9,0H33A3.25,3.25,0,0,1,36.3,3.17V9.73h2.09A3.54,3.54,0,0,1,42,13.18V26.42A.59.59,0,0,1,41.39,27ZM35.09,3.17a2.07,2.07,0,0,0-2.12-2H9a2.07,2.07,0,0,0-2.12,2V9.6l2.44,0a.24.24,0,0,1,0-.08V5.3a1.68,1.68,0,0,1,1.72-1.64h6.18A1.68,1.68,0,0,1,19,5.3V9.55a.53.53,0,0,1,0,.18h4.18a.53.53,0,0,1,0-.18V5.3a1.68,1.68,0,0,1,1.72-1.64H31A1.68,1.68,0,0,1,32.67,5.3V9.55a.19.19,0,0,1,0,.07l2.44,0ZM10.52,9.64l7,.08h.27a.52.52,0,0,1,0-.18V5.3a.49.49,0,0,0-.51-.48H11.05a.49.49,0,0,0-.51.48V9.55A.29.29,0,0,1,10.52,9.64Zm13.71.07,7.25-.07a.29.29,0,0,1,0-.09V5.3A.49.49,0,0,0,31,4.82H24.77a.49.49,0,0,0-.51.48V9.55A.41.41,0,0,1,24.23,9.71Zm16.55,3.47a2.34,2.34,0,0,0-2.39-2.29H3.61a2.35,2.35,0,0,0-2.4,2.29v7.15l17.86.14h2.75l19-.14Z" transform="translate(0 0)"/></svg>