<svg id="Livello_1" data-name="Livello 1" xmlns="http://www.w3.org/2000/svg" viewBox="0 0 32.22 27.66"><defs><style>.cls-1{fill:#7a7a7a;}</style></defs><title>menu_animazione</title><path class="cls-1" d="M33.08,23c-.23.92-3.5,2.09-8.8,2.69v0a13.26,13.26,0,0,1-14.43.09c-6-.58-8.7-1.87-8.93-2.76a1,1,0,0,1,.4-1.1c.2-.22,1.8-2.07,1.8-6a22.09,22.09,0,0,1,.15-2.64,1.2,1.2,0,0,1,0-.19,13.76,13.76,0,0,1,27.46,0,.6.6,0,0,1,0,.19,21.8,21.8,0,0,1,.15,2.63c0,4,1.6,5.82,1.8,6A1,1,0,0,1,33.08,23ZM2,22.71H2c.36.35,2.12,1.22,6.27,1.78a13.42,13.42,0,0,1-4.14-7.12C3.72,20.73,2.27,22.48,2,22.71ZM17,1.61A12.23,12.23,0,0,0,4.81,13.18a11.53,11.53,0,0,0,1.65.11A12.46,12.46,0,0,0,16.58,8.08L17,7.53l.42.55a12.44,12.44,0,0,0,10.12,5.21,11.53,11.53,0,0,0,1.65-.11A12.23,12.23,0,0,0,17,1.61ZM27.54,14.34A13.38,13.38,0,0,1,17,9.24a13.38,13.38,0,0,1-10.54,5.1,12.09,12.09,0,0,1-1.69-.11,12.23,12.23,0,1,0,24.46,0A13.8,13.8,0,0,1,27.54,14.34Zm2.38,3a13.52,13.52,0,0,1-4,7c3.66-.55,5.65-1.34,6.15-1.72C31.68,22.42,30.27,20.68,29.92,17.37Zm-7.73-1A1.57,1.57,0,1,1,23.76,18,1.59,1.59,0,0,1,22.19,16.35ZM17,23.72a3.14,3.14,0,0,1-3.11-2.21.53.53,0,0,1,.37-.65h.13a.51.51,0,0,1,.5.39A2.09,2.09,0,0,0,17,22.67a2,2,0,0,0,2.1-1.42.54.54,0,0,1,.63-.39.52.52,0,0,1,.38.63A3,3,0,0,1,17,23.72ZM10.24,18a1.63,1.63,0,1,1,1.57-1.63A1.6,1.6,0,0,1,10.24,18Z" transform="translate(-0.89 -0.17)"/></svg>