<svg id="Livello_1" data-name="Livello 1" xmlns="http://www.w3.org/2000/svg" viewBox="0 0 32.88 29.46"><defs><style>.cls-1{fill:#7a7a7a;}</style></defs><title>menu_servizi</title><path class="cls-1" d="M32.92,29.59a.82.82,0,0,1-.37.52.86.86,0,0,1-1.15-.26l-2.82-4.46H8.74L5.92,29.85a.86.86,0,0,1-1.15.26.82.82,0,0,1-.37-.52A.8.8,0,0,1,4.51,29l2.38-3.81-.11-.23a.36.36,0,0,1,0-.09L.2,15.38a.84.84,0,0,1-.13-.62.81.81,0,0,1,.35-.53.85.85,0,0,1,1.16.21l6.35,9.19.07.09H29.08a.87.87,0,0,1,.8.58L32.81,29A.8.8,0,0,1,32.92,29.59ZM15,13.44a1.41,1.41,0,0,0,.39.34,1.55,1.55,0,0,0,.66.24l-4.43,7a.6.6,0,0,1-1.1-.19.65.65,0,0,1,.08-.45Zm13.4,4.22c-.41,0-.74-.3-1.12-.74A2.89,2.89,0,0,0,25,15.73a3.2,3.2,0,0,0-1.32.31,1.44,1.44,0,0,1-1.56-.2,1.26,1.26,0,0,1-.34-.9,2.94,2.94,0,0,0-1.34-2.42,2.81,2.81,0,0,0-2.75-.14,1.24,1.24,0,0,1-1.45-.14,1.37,1.37,0,0,1-.36-1.05,2.94,2.94,0,0,0-1.34-2.37,2.77,2.77,0,0,0-2.67-.21l0,0a1.7,1.7,0,0,1-.66.14c-.26,0-1.11-.09-1.15-1.35A2.56,2.56,0,0,0,8,4.74c-.81-.11-1.25-.43-1.32-.93C6.53,3,7.55,2.59,8,2.39a19.65,19.65,0,0,1,6.84-1.3c8.28,0,14.07,6,14.42,14.87A1.91,1.91,0,0,1,29,17.41.79.79,0,0,1,28.4,17.66ZM28,15.37c-.56-7.88-5.69-13-13.08-13A17.92,17.92,0,0,0,9,3.42l-.37.13L9,3.69a3.91,3.91,0,0,1,2.35,3.52v.2l.19-.07a4,4,0,0,1,3.74.4A4.2,4.2,0,0,1,17.22,11v.2l.19-.08a4.16,4.16,0,0,1,5.7,3.58v.2l.19-.07a4.07,4.07,0,0,1,4.39.69l.26.24ZM23.86,2.66l-.35-.23c-.38-.24-.78-.48-1.19-.7l.35-.55A.91.91,0,0,1,23.91.9a1,1,0,0,1,.4.56.91.91,0,0,1-.12.68Z" transform="translate(-0.06 -0.77)"/></svg>