<svg width="86" height="70" viewBox="0 0 86 70" fill="none" xmlns="http://www.w3.org/2000/svg">
<path d="M72.3221 58.0197H10.0896V64.5255H72.3221V58.0197Z" fill="#2C2665"/>
<path d="M72.3221 38.6087H10.0896V45.5412H72.3221V38.6087Z" fill="#2C2665"/>
<path d="M85.6538 54.1268C85.6538 54.0734 85.6004 54.0201 85.6004 54.0201V53.9668V53.9135C85.4938 53.4869 85.1205 53.3269 84.8538 53.2202C84.7472 53.1669 84.6405 53.1136 84.5339 53.0602L84.4806 53.0069H84.4272C83.1474 52.7403 81.8142 52.6336 80.5344 52.5803L79.6811 52.527C79.4678 52.527 79.2545 52.5803 79.0412 52.5803C78.7746 52.6336 78.5613 52.6336 78.348 52.6336H78.2946C75.4683 53.2202 72.6953 54.0201 70.189 54.7667C69.869 54.9267 69.4957 55.0867 69.1224 55.1933C68.4292 55.4599 67.6826 55.7799 67.0427 56.2065L64.163 57.4864C64.1097 57.4864 64.0564 57.4864 64.003 57.5397C64.2163 57.1664 64.3763 56.8464 64.5896 56.4732C65.1229 55.5133 65.7095 54.4467 66.2961 53.4335L66.6694 52.5803L66.7227 52.4736C67.3626 51.6204 68.0559 50.7139 68.5891 49.754L68.6425 49.6473C68.6425 49.5407 68.6958 49.4873 68.6958 49.3807C68.7491 49.1674 68.8558 48.8474 68.7491 48.5808L68.6958 48.4208H68.4825C68.4292 48.4208 68.3758 48.4208 68.3225 48.3675C68.1092 48.3141 67.8959 48.2608 67.6826 48.3675L67.5759 48.4208L67.5226 48.4741C66.8827 49.434 65.9761 50.4472 65.1762 51.3538L64.8563 51.7271C64.6963 51.887 64.483 52.047 64.323 52.2603C63.5764 53.0602 62.7765 53.8601 61.7633 54.1268C61.7633 54.1268 61.7633 54.0734 61.71 54.0734C61.6566 54.0201 61.6566 53.9135 61.6033 53.8601C61.6033 53.1669 61.6566 52.4736 61.87 51.7804C61.9766 51.4071 62.1899 51.0338 62.4032 50.6605C62.6699 50.2339 62.9365 49.754 63.0431 49.2207V49.114L62.9898 49.0074C62.8298 48.5808 62.4032 48.6341 62.2432 48.6341C62.1899 48.6341 62.1366 48.6341 62.0833 48.6341C61.6033 48.6874 61.4967 49.0607 61.4433 49.3274C61.4433 49.434 61.39 49.4873 61.3367 49.5407C61.0701 49.914 60.8567 50.2872 60.5901 50.6605C59.7369 51.9404 58.8836 53.2735 57.6571 53.9135C57.4438 53.9135 57.2838 53.7002 57.1772 53.5935L57.1239 53.5402C56.6439 53.1669 56.6972 52.4736 56.6972 51.7804C56.6972 51.6204 56.6972 51.4071 56.6972 51.2471C56.6972 51.0871 56.7506 50.9272 56.8039 50.7672C56.8572 50.5539 56.9639 50.3406 56.9639 50.0739C57.0705 49.9673 57.1239 49.754 57.0705 49.5407C57.7638 46.981 58.6703 44.048 60.3768 41.275L60.4835 41.115C60.5368 41.0617 60.5901 41.0084 60.5901 40.9017C60.8567 40.3684 61.3367 39.8885 61.7633 39.4619L62.1366 39.0886L62.0833 38.662L61.9766 38.5553C61.6566 38.2354 61.2834 38.182 61.0701 38.2354H60.9634L60.9101 38.2887C58.937 40.1551 57.4971 42.5015 56.6439 45.1145C55.844 46.7677 55.4174 48.5275 54.9908 50.1806C54.5108 51.2471 54.8841 52.4203 55.2041 53.4335C55.2574 53.7002 55.3641 53.9135 55.4174 54.1801C55.684 55.14 56.7506 55.4599 57.2838 55.6199H57.3372H57.3905C58.457 55.5133 59.1503 54.7134 59.7902 54.0201C59.8969 53.8601 60.0568 53.7535 60.1635 53.5935C60.1635 53.7002 60.2168 53.7535 60.2168 53.8601C60.3235 54.2868 60.4301 54.7667 60.9634 55.0867C61.9766 55.5133 62.8298 55.0333 63.6297 54.66C63.3098 55.2466 62.9898 55.7799 62.6699 56.3132L62.2432 57.0064C61.6033 58.4463 60.4301 59.0862 59.2036 59.7261C58.5637 60.0461 57.8704 60.4193 57.2838 60.8993C56.6439 61.4859 55.9507 61.9658 55.2574 62.4458C54.1909 63.1923 53.1243 63.9389 52.2711 64.9521L52.2178 65.0055C51.3646 65.8054 50.2447 66.7652 50.458 68.1517V68.2584L50.5647 68.3117C50.6713 68.4184 50.7246 68.5784 50.778 68.7917C50.8846 69.0583 50.9913 69.4316 51.3112 69.6449C51.6312 69.9115 51.9512 69.8582 52.1111 69.8049C52.2178 69.8049 52.3244 69.7516 52.3778 69.8049L52.4844 69.8582L52.5911 69.8049C53.8176 69.3783 55.2041 68.7917 56.324 67.7251C58.7237 65.6454 60.4835 62.979 62.0833 60.4193L62.1366 60.366C62.3499 59.7261 62.9898 59.2995 64.1097 59.0862H64.163L64.2163 59.0328C64.643 58.6596 65.1762 58.4996 65.7628 58.2863C66.1894 58.1263 66.616 57.9663 66.9893 57.753C67.8426 57.5397 68.5891 57.2197 69.3357 56.8464C69.7623 56.6331 70.1356 56.4732 70.5622 56.2599C71.8421 55.7799 73.1753 55.3533 74.5618 55.0333C75.6816 54.6067 76.9615 54.4467 78.2413 54.3401C78.6146 54.2868 78.9879 54.2868 79.3612 54.2334C80.1078 54.2868 80.9077 54.2868 81.6542 54.2868C82.0275 54.2868 82.3475 54.2868 82.7208 54.2868C82.9874 54.3401 83.254 54.3934 83.4673 54.3934C84.0006 54.5001 84.5339 54.5534 85.0138 54.7134L85.1205 54.7667L85.2271 54.7134C85.6537 54.82 85.7604 54.5534 85.6538 54.1268ZM52.8577 68.0451C52.6444 68.0984 52.3778 68.1517 52.1645 68.1517C52.2178 68.0984 52.2178 67.9918 52.2711 67.9384L52.3244 67.8318C54.0309 65.4854 56.2706 63.7789 58.777 62.0725C57.3372 64.3122 55.3641 66.8186 52.8577 68.0451Z" fill="#F59916"/>
<path d="M42.2457 8.31897C39.3127 8.31897 36.913 10.7187 36.913 13.6517C36.913 16.5846 39.3127 18.9843 42.2457 18.9843C45.1786 18.9843 47.5783 16.5846 47.5783 13.6517C47.525 10.7187 45.1786 8.31897 42.2457 8.31897Z" fill="#F59916"/>
<path fill-rule="evenodd" clip-rule="evenodd" d="M30.0337 31.1962C30.0337 31.1962 30.9936 20.2109 40.7524 19.9442C42.5655 19.8909 46.0851 19.4643 50.1379 23.1438C50.1379 23.1438 51.3644 24.5837 51.7911 25.5436C52.2177 26.5568 53.3909 31.1429 53.3375 31.1429H49.178C49.178 31.1429 48.4315 23.3571 41.8189 23.6771C35.2064 23.9437 34.4065 31.1429 34.4065 31.1429H30.0337V31.1962Z" fill="#2C2665"/>
<path d="M32.2735 55.9933L32.1669 55.8333C32.0069 55.62 31.8469 55.3534 31.6869 55.14C31.5803 54.7668 31.4203 54.3935 31.2603 54.0735C30.887 53.2203 30.5137 52.3671 30.727 51.4072C30.9937 50.9272 31.207 50.4473 31.367 49.9673C31.5803 49.4341 31.8469 48.8475 32.1669 48.3142L32.2202 48.2609C32.2202 48.2076 32.3269 48.1009 32.4335 47.9942C32.6468 47.7809 32.9135 47.461 32.8068 47.0344L32.7001 46.9277L32.5402 46.8211C32.3802 46.7144 32.1669 46.6077 31.8469 46.6611L31.6869 46.7144L31.6336 46.8744C31.5803 46.9277 31.5803 46.981 31.367 47.0344C31.3136 47.0344 31.3136 47.0344 31.2603 47.0877L30.9404 46.8211C30.0871 46.3411 28.9673 46.5011 27.9007 47.301L27.8474 47.3543C27.6874 47.5143 27.5808 47.6743 27.4208 47.7809C26.0343 49.2208 24.4878 50.8206 24.5945 53.007C24.7544 53.7002 25.2877 54.3401 25.981 54.7134L26.0876 54.7668C27.3675 55.0334 28.2207 54.2335 28.9673 53.4869C29.3405 55.14 30.2471 56.4199 31.6869 57.4331L31.7403 57.4864C31.8469 57.5398 31.9536 57.5398 32.0602 57.5931C32.2735 57.6997 32.5402 57.8064 32.8068 57.8064H32.9135L32.9668 57.7531C33.1801 57.6464 33.2334 57.4331 33.2334 57.2731L33.4467 57.1131L32.2735 55.9933ZM29.9271 49.3274C29.6072 50.074 29.2872 50.7672 28.6473 51.3005C28.3807 51.4605 28.114 51.6738 27.9007 51.9404C27.3675 52.4204 26.9942 52.7403 26.4609 52.6337C26.4076 52.4204 26.5142 52.1537 26.7275 51.8338C26.8342 51.6738 26.9408 51.4605 26.9942 51.3005C27.7941 50.1273 28.754 48.8475 29.9805 48.2609C30.0871 48.2609 30.1938 48.2609 30.2471 48.2609H30.3004V48.5808C30.1405 48.7941 30.0338 49.0608 29.9271 49.3274Z" fill="#F59916"/>
<path d="M20.115 34.0759C21.5014 35.8357 21.6081 38.2354 21.7148 40.3684C21.5014 41.3283 21.2881 42.6615 20.1683 42.8748C19.635 41.9683 19.955 40.7417 19.6883 39.7285C19.315 38.5553 19.7417 36.9555 18.6218 36.1023C17.5019 36.1023 16.702 37.3821 16.1154 38.182C14.8356 40.4218 14.1423 42.9281 13.1825 45.3278L13.2891 45.4345C17.7686 44.8479 19.9016 50.1806 22.5147 52.7936C24.2211 54.7667 26.3542 56.8465 29.0205 56.7398C29.2338 56.8998 29.5538 56.8465 29.6071 57.1131C29.7671 57.4864 29.3938 57.753 29.1272 57.8597C27.5274 58.3396 25.9809 57.4864 24.4878 57.0064C19.795 55.3 18.8884 49.434 14.1957 47.7276C13.2891 47.5143 12.2226 47.6209 11.4227 47.8342C8.48969 53.7535 7.26317 60.4194 5.71669 66.9252C5.55671 67.2452 5.07677 67.1385 4.86346 66.9786C3.85025 66.6053 4.22353 65.3254 4.33019 64.6322C5.07677 59.1928 7.04986 54.2868 8.70299 49.2207C7.42315 49.5407 6.19663 50.3406 4.97011 50.9805C3.53028 51.8871 2.14379 53.0069 0.810613 54.0735C0.437325 54.1801 0.170691 53.8602 0.0640368 53.5935C-0.362578 52.047 1.45054 51.5138 2.30377 50.7139C4.91678 49.0074 7.58313 47.5143 10.3561 46.1278C12.0093 42.3949 13.1825 38.4487 15.9021 35.1957C16.862 34.0759 17.9819 33.116 19.5284 33.6493L20.115 34.0759Z" fill="#F59916"/>
<path fill-rule="evenodd" clip-rule="evenodd" d="M16.9153 63.7789H18.0885V61.6458H21.7147V63.7789H22.8879V58.8195H21.7147V60.7393H18.0885V58.8195H16.9153V63.7789Z" fill="white"/>
<path fill-rule="evenodd" clip-rule="evenodd" d="M26.7275 59.9927V62.6057C26.7275 63.5656 27.0475 63.7789 27.9541 63.7789H31.6336C32.5935 63.7789 32.8601 63.5123 32.8601 62.6057V59.9927C32.8601 59.0328 32.5402 58.8195 31.6336 58.8195H27.9541C27.0475 58.8195 26.7275 59.0328 26.7275 59.9927ZM27.9007 62.8724V59.7261H31.7403V62.8724H27.9007Z" fill="white"/>
<path fill-rule="evenodd" clip-rule="evenodd" d="M39.046 59.7261H41.339V58.8195H35.6331V59.7261H37.9261V63.7789H39.046V59.7261Z" fill="white"/>
<path fill-rule="evenodd" clip-rule="evenodd" d="M44.2188 63.7789H49.3381V62.8724H45.3919V61.5925H47.685V60.7926H45.3919V59.6727H49.2848V58.8195H44.2188V63.7789Z" fill="white"/>
<path d="M15.6356 38.2354H14.3557V43.8347H15.6356V38.2354Z" fill="white"/>
<path fill-rule="evenodd" clip-rule="evenodd" d="M28.7539 40.3152H31.3136V39.3019H24.8611V40.3152H27.4208V44.9013H28.7539V40.3152Z" fill="white"/>
<path fill-rule="evenodd" clip-rule="evenodd" d="M38.4595 42.6615L39.686 40.3685L40.9125 42.6615H38.4595ZM35.9531 44.9013H37.233L37.8729 43.6747H41.3925L42.0857 44.9013H43.5255L40.3259 39.3019H39.0461L35.9531 44.9013Z" fill="white"/>
<path fill-rule="evenodd" clip-rule="evenodd" d="M50.2446 44.9013H55.7373V43.8881H51.5778V39.3019H50.2446V44.9013Z" fill="white"/>
<path d="M72.4287 30.823C72.2687 30.503 69.0691 22.344 64.483 18.6111C59.9502 14.9316 57.2838 16.0514 54.7775 17.1713L54.4575 17.278C53.231 17.8112 52.5377 18.4511 51.7912 19.1977C50.5647 20.3709 49.1248 21.7574 44.6987 22.824C38.5661 24.3171 35.5798 21.4908 34.4599 20.4242C34.3 20.2643 34.1933 20.1576 34.0866 20.1043C29.2872 16.4247 24.8078 15.2515 20.8616 16.5847C17.662 17.6512 14.7823 20.4776 12.5426 24.6904C10.8361 27.89 10.0362 30.7697 10.0362 30.7697L9.92957 31.1963H16.7554L16.8621 31.0363C16.9154 30.983 20.7016 23.5705 23.3679 22.8773C25.7143 22.2374 26.4609 22.9306 29.6072 25.8103C30.0338 26.1835 30.4604 26.6102 30.9937 27.0901C34.6732 30.3964 39.206 31.6229 44.4854 30.6097C47.7383 30.0231 50.5113 28.4233 53.9776 26.3969C54.9375 25.8636 55.8973 25.277 56.9639 24.6904C57.8704 24.1571 58.8303 24.1038 59.7902 24.4238C63.0431 25.5436 65.4429 31.0363 65.4429 31.0896L65.5495 31.3029H72.5887L72.4287 30.823Z" fill="#F59916"/>
<path d="M18.8885 7.78573C18.8885 3.46625 22.3548 0 26.6743 0C30.9404 0 34.46 3.46625 34.46 7.78573C34.46 12.1052 30.9938 15.5715 26.6743 15.5715C22.3548 15.5715 18.8885 12.1052 18.8885 7.78573Z" fill="#2C2665"/>
<path d="M50.0846 7.78573C50.0846 3.46625 53.5508 0 57.8703 0C62.1898 0 65.656 3.46625 65.656 7.78573C65.656 12.1052 62.1898 15.5715 57.8703 15.5715C53.5508 15.5715 50.0846 12.1052 50.0846 7.78573Z" fill="#2C2665"/>
<path fill-rule="evenodd" clip-rule="evenodd" d="M62.6698 44.9013H64.003V42.3949L66.8826 39.3019H65.3362L63.4164 41.4883L61.4966 39.3019H59.7902L62.6698 42.3949V44.9013Z" fill="white"/>
<path fill-rule="evenodd" clip-rule="evenodd" d="M65.2828 59.6727V60.2593L66.296 59.9927V59.8861C66.296 59.0328 65.9227 58.8195 65.0695 58.8195H62.2432C61.2833 58.8195 61.0167 59.0862 61.0167 59.9927V60.526C61.0167 61.4859 61.3366 61.6992 62.2432 61.6992H65.3361V62.819H61.8166V62.2324L60.8033 62.4457V62.6057C60.8033 63.5656 61.1233 63.7789 62.0299 63.7789H65.1228C66.0827 63.7789 66.3493 63.5123 66.3493 62.6057V61.9125C66.3493 60.9526 66.0294 60.7393 65.1228 60.7393H62.0299V59.6727H65.2828Z" fill="white"/>
<path fill-rule="evenodd" clip-rule="evenodd" d="M52.911 63.7789H57.8171V62.8724H54.0842V58.8195H52.911V63.7789Z" fill="white"/>
<path d="M51.9511 55.0333C52.4843 56.0998 53.7108 57.1664 55.0973 57.1664C55.204 57.1664 55.2573 57.1664 55.364 57.1664H55.4173C55.8972 57.0064 56.0572 56.4731 56.0039 56.0465L55.9506 55.8865L55.8439 55.8332C55.4173 55.6199 55.044 55.4599 54.6174 55.3533C54.4041 55.2999 54.2441 55.2466 54.0841 55.1933C53.1776 54.66 52.9643 53.6468 52.8043 52.3136V52.207V52.047C52.751 51.9937 52.6976 51.9404 52.6976 51.8337C52.4843 51.4604 52.111 50.8738 51.4178 51.0338H51.3645C50.5112 51.4071 49.7647 52.047 49.0714 52.6869C48.4315 53.2735 47.8449 53.8068 47.1516 54.1268C47.1516 54.0734 47.0983 54.0201 47.0983 54.0201C47.045 53.2202 47.0983 52.5269 47.1516 51.727C47.205 51.3004 47.205 50.9271 47.2583 50.5005V50.4472V50.3939C47.205 50.1806 47.2583 49.9673 47.3116 49.7006C47.3649 49.1674 47.4716 48.4741 46.8317 47.9942L46.725 47.9408H46.6184C46.3517 47.9408 46.0851 48.0475 45.9251 48.1008L45.7118 48.1541L45.6585 48.2075C45.1252 48.9007 44.5919 49.6473 44.112 50.3939C43.8454 50.8205 43.5787 51.2471 43.2588 51.6204C43.3121 51.0338 43.4721 50.4472 43.6321 49.8606C43.792 49.114 44.0054 48.3675 44.0587 47.5142C44.0587 47.1943 43.952 46.9276 43.7387 46.7143L43.6321 46.661C42.9921 46.3944 42.5122 46.981 42.2456 47.3009C42.1922 47.3542 42.1389 47.4609 42.0856 47.5142C41.2857 48.3141 40.5924 49.2207 39.8992 50.0739C39.4726 50.5539 39.0993 51.0871 38.6727 51.5671C38.726 51.1938 38.7793 50.7672 38.886 50.3939C39.0993 49.3807 39.3126 48.2608 39.0993 47.0876V46.981L39.0459 46.9276C38.726 46.501 38.2994 46.341 37.9261 46.3944H37.8194L37.7661 46.4477C36.6462 47.4609 35.5264 48.7407 34.5132 50.0206L33.9266 50.7138C33.5533 51.1404 33.18 51.4071 32.8067 51.6737C32.8067 51.6204 32.8067 51.5137 32.8067 51.4604V51.4071L32.7534 51.3538C32.4867 50.9805 32.0601 51.0338 31.7935 51.0871H31.6868L31.6335 51.1938C31.1002 51.8337 31.4202 52.9002 31.6868 53.3802C32.0068 53.9134 32.5401 54.0734 33.0733 53.9134L33.1267 53.8601C34.7798 52.6336 36.0063 51.0871 37.2862 49.4873C37.2328 49.8606 37.1262 50.2339 37.0729 50.6072C36.9662 50.9805 36.9129 51.3538 36.8595 51.7804C36.8595 52.5803 36.8062 53.3269 36.6462 54.0201V54.0734V54.1268C36.6462 54.1801 36.6462 54.2867 36.6462 54.3934C36.6462 54.82 36.5929 55.4066 37.1262 55.6732L37.1795 55.7266H37.2328C37.4461 55.7266 37.6595 55.6732 37.7661 55.6199C37.8194 55.6199 37.8194 55.5666 37.8728 55.5666L37.9794 55.5133L39.4192 53.8068C40.1125 53.0069 40.6458 52.1537 41.179 51.3004C41.5523 50.7138 41.9256 50.1272 42.2989 49.594C42.1922 50.0206 42.0856 50.4472 41.9789 50.8738C41.659 52.1537 41.2857 53.4868 41.5523 54.9267V55.0333L41.6056 55.0866C41.7656 55.2999 42.2989 55.8865 42.8322 55.4066L43.1521 54.9267C43.8454 53.8068 44.432 52.7936 44.9119 51.6204C45.0186 51.4604 45.1252 51.3004 45.2852 51.1405L45.3385 51.0871C45.1785 52.047 45.0719 53.0069 45.0186 53.9668V54.0201V54.0734C45.2852 55.0333 45.7651 55.6732 46.4584 55.9399L46.565 55.9932H46.6717C47.4716 55.7799 48.2182 55.3533 48.9648 54.66C49.338 54.3934 49.658 54.0734 49.9246 53.7535C50.1913 53.4335 50.4579 53.1669 50.7779 52.9536C50.9912 52.8469 51.0978 52.6869 51.2578 52.5269C51.3111 52.4736 51.3111 52.4736 51.3645 52.4203C51.5778 52.8469 51.6844 53.3269 51.7378 53.8068C51.7911 54.3401 51.8444 54.66 51.9511 55.0333Z" fill="#F59916"/>
<path d="M51.9512 49.6473L52.1111 49.594C52.2178 49.594 52.4311 49.594 52.5378 49.434C53.231 49.2207 53.551 48.6341 53.8176 48.1008C54.0309 47.7276 54.2442 47.3543 54.5642 47.141L54.6175 47.0343C54.7775 46.7143 54.6708 46.501 54.6175 46.3411C54.6175 46.2877 54.5642 46.2877 54.5642 46.2344V46.0744L54.1909 45.8078H54.1376C53.3377 45.6478 52.4844 46.0211 51.7912 46.821L51.6312 47.0876C51.3646 47.7809 50.8846 48.7408 51.6845 49.4873L51.9512 49.6473Z" fill="#F59916"/>
</svg>
