<svg width="95" height="91" viewBox="0 0 95 91" fill="none" xmlns="http://www.w3.org/2000/svg">
<path d="M37.686 72.0992L37.6938 71.9668H37.5612H6.26326C2.87924 71.9668 0.125 69.2126 0.125 65.8286V57.9857V6.26326C0.125 2.87924 2.87924 0.125 6.26326 0.125H87.7775C91.1616 0.125 93.9158 2.87924 93.9158 6.26326V57.9854V57.9857L93.8974 65.8283V65.8286C93.8974 69.2126 91.1432 71.9668 87.7592 71.9668H56.4612H56.3287L56.3364 72.0992C56.5209 75.2349 57.2687 77.6162 58.592 79.2154C59.9195 80.8197 61.8129 81.6209 64.249 81.6209H67.3898C69.9105 81.6209 71.9668 83.6772 71.9668 86.198C71.9668 88.7187 69.9105 90.775 67.3898 90.775H26.6327C24.1119 90.775 22.0556 88.7187 22.0556 86.198C22.0556 83.6772 24.1119 81.6209 26.6327 81.6209H29.7735C32.2095 81.6209 34.103 80.8197 35.4305 79.2154C36.7538 77.6162 37.5016 75.2349 37.686 72.0992ZM37.3216 81.412L37.1325 81.6209H37.4143H56.6082H56.8899L56.7008 81.412C54.7977 79.3095 53.6647 76.1449 53.4452 72.0851L53.4388 71.9668H53.3204H40.702H40.5836L40.5772 72.0851C40.3578 76.1449 39.2247 79.3095 37.3216 81.412ZM90.9184 56.5495H91.0434V56.4245V6.26326C91.0434 4.4677 89.5731 2.99745 87.7775 2.99745H6.28163C4.48607 2.99745 3.01582 4.4677 3.01582 6.26326V56.4245V56.5495H3.14082H6.28163H6.40663V56.4245V7.84286C6.40663 7.04863 7.04863 6.40663 7.84286 6.40663H86.2163C87.0105 6.40663 87.6525 7.04863 87.6525 7.84286V56.4245V56.5495H87.7775H90.9184ZM84.6367 56.5495H84.7617V56.4245V9.40408V9.27908H84.6367H9.40408H9.27908V9.40408V56.4245V56.5495H9.40408H84.6367ZM3.12245 59.4403H2.99745V59.5653V65.8286C2.99745 67.6241 4.4677 69.0944 6.26326 69.0944H87.7592C89.5547 69.0944 91.025 67.6241 91.025 65.8286V59.5653V59.4403H90.9H86.198H7.82449H3.12245ZM69.076 86.198C69.076 85.2656 68.3221 84.5117 67.3898 84.5117H26.651C25.7187 84.5117 24.9648 85.2656 24.9648 86.198C24.9648 87.1303 25.7187 87.8842 26.651 87.8842H67.3898C68.3221 87.8842 69.076 87.1303 69.076 86.198Z" fill="#F59916" stroke="white" stroke-width="0.25"/>
<path d="M42.3183 62.8127H51.7224C52.5157 62.8127 53.1586 63.4722 53.1586 64.249C53.1586 65.0432 52.5166 65.6852 51.7224 65.6852H42.3183C41.5241 65.6852 40.8821 65.0432 40.8821 64.249C40.8821 63.4547 41.5241 62.8127 42.3183 62.8127Z" fill="#F59916" stroke="white" stroke-width="0.25"/>
<path d="M39.1775 36.1801H39.3025V36.0551V32.9143V32.7893H39.1775H29.7734H29.6484V32.9143V36.0551V36.1801H29.7734H39.1775ZM28.2122 29.8985H40.7571C41.5504 29.8985 42.1933 30.5579 42.1933 31.3347V37.598C42.1933 38.3922 41.5513 39.0342 40.7571 39.0342H28.2122C27.418 39.0342 26.776 38.3922 26.776 37.598V31.3347C26.776 30.5405 27.418 29.8985 28.2122 29.8985Z" fill="#F59916" stroke="white" stroke-width="0.25"/>
<path d="M58.2157 45.4233L58.189 45.3342H58.096H21.949C21.1533 45.3342 20.496 44.6729 20.5128 43.9007L20.5128 43.9007V43.8979V21.949V14.1061C20.5128 13.3119 21.1548 12.6699 21.949 12.6699H65.8102C66.0695 12.6699 66.3035 12.7217 66.5003 12.8365L66.5002 12.8367L66.5058 12.8395C66.96 13.075 67.2648 13.5647 67.2648 14.1061V36.1286V36.2217L67.354 36.2483L72.514 37.7908C72.5143 37.7909 72.5145 37.791 72.5147 37.791C73.0037 37.9431 73.3596 38.331 73.4959 38.8251C73.6302 39.3122 73.4794 39.8357 73.1239 40.1912L71.0117 42.3034L70.9233 42.3918L71.0117 42.4802L74.794 46.2626C74.7942 46.2627 74.7943 46.2629 74.7945 46.2631C75.3538 46.8398 75.3518 47.7531 74.7953 48.3096L70.3688 52.7361C70.0983 53.0066 69.726 53.1587 69.3551 53.1587C68.9843 53.1587 68.612 53.0066 68.3415 52.7361L64.5578 48.9524L64.4694 48.864L64.381 48.9524L62.1586 51.1749C61.8053 51.5281 61.2812 51.6647 60.7886 51.5458C60.3003 51.428 59.9111 51.0572 59.7583 50.5654C59.7583 50.5653 59.7582 50.5651 59.7582 50.565L58.2157 45.4233ZM68.0292 43.5708L68.0293 43.5708L68.0268 43.5684C67.704 43.2626 67.5332 42.8367 67.5332 42.4102C67.5332 41.9656 67.7038 41.5566 68.0109 41.2496L69.2231 40.0374L69.3713 39.8892L69.1705 39.8292L65.4236 38.7088L65.4061 38.7036H65.3878H65.3877H65.3876L59.216 36.8539L59.2155 36.8537L58.7936 36.7253L58.5707 36.6575L58.6374 36.8807L59.4823 39.7092L59.4823 39.7094L61.7415 47.24L61.8017 47.4404L61.9496 47.2925L63.0884 46.1537C63.4687 45.7734 63.9511 45.5842 64.4511 45.5842C64.951 45.5842 65.4334 45.7734 65.8137 46.1537L69.2668 49.6067L69.3551 49.6951L69.4435 49.6067L71.666 47.3843L71.7544 47.2959L71.666 47.2075L68.0292 43.5708ZM57.1592 42.4434H57.3274L57.2789 42.2823L55.0565 34.8988C54.9041 34.3907 55.0401 33.8326 55.4109 33.4618C55.6955 33.1772 56.0638 33.0411 56.4536 33.0393C56.5949 33.057 56.7149 33.0746 56.8507 33.1083L64.2316 35.3116L64.3924 35.3596V35.1918V23.5102V23.3852H64.2674H23.5102H23.3852V23.5102V42.3184V42.4434H23.5102H57.1592ZM23.5102 15.5423H23.3852V15.6673V20.3694V20.4944H23.5102H64.2674H64.3924V20.3694V15.6673V15.5423H64.2674H23.5102Z" fill="#F59916" stroke="white" stroke-width="0.25"/>
</svg>
