<?xml version="1.0" encoding="iso-8859-1"?>
<!-- Generator: Adobe Illustrator 19.0.0, SVG Export Plug-In . SVG Version: 6.00 Build 0)  -->
<svg version="1.1" id="Capa_1" xmlns="http://www.w3.org/2000/svg" xmlns:xlink="http://www.w3.org/1999/xlink" x="0px" y="0px"
	 viewBox="0 0 512.001 512.001" style="enable-background:new 0 0 512.001 512.001;" xml:space="preserve">
<g>
	<g>
		<path d="M119.938,30.013c-15.171,0-27.512,12.341-27.512,27.512h15.007c0-6.896,5.609-12.506,12.506-12.506h58.606V30.013H119.938
			z"/>
	</g>
</g>
<g>
	<g>
		<rect x="223.569" y="30.013" width="15.007" height="15.007"/>
	</g>
</g>
<g>
	<g>
		<rect x="193.556" y="30.013" width="15.007" height="15.007"/>
	</g>
</g>
<g>
	<g>
		<rect x="344.463" y="70.031" width="15.007" height="15.007"/>
	</g>
</g>
<g>
	<g>
		<path d="M404.565,57.526c0,6.896-5.609,12.506-12.506,12.506h-17.587v15.007h17.587c15.17,0,27.512-12.341,27.512-27.512H404.565z
			"/>
	</g>
</g>
<g>
	<g>
		<rect x="314.45" y="70.031" width="15.007" height="15.007"/>
	</g>
</g>
<g>
	<g>
		<path d="M484.224,475.355L359.906,115.051h32.153c31.72,0,57.526-25.805,57.526-57.526C449.585,25.805,423.779,0,392.059,0
			H119.938c-31.72,0-57.526,25.805-57.526,57.526c0,31.72,25.805,57.526,57.526,57.526h32.152L27.793,475.301
			c-2.45,6.928-2.056,14.396,1.111,21.028c3.167,6.631,8.727,11.633,15.655,14.083c3,1.062,6.102,1.589,9.192,1.589
			c4.046,0,8.075-0.904,11.835-2.699c6.631-3.166,11.633-8.726,14.101-15.707l31.914-92.416h288.796l31.932,92.468
			c2.45,6.928,7.451,12.487,14.083,15.654c3.761,1.795,7.788,2.699,11.835,2.699c3.09,0,6.192-0.527,9.192-1.589
			c6.929-2.45,12.489-7.451,15.655-14.083C486.261,489.696,486.655,482.229,484.224,475.355z M119.938,100.044
			c-23.445,0-42.519-19.073-42.519-42.519s19.073-42.519,42.519-42.519h272.121c23.445,0,42.519,19.073,42.519,42.519
			s-19.073,42.519-42.519,42.519H119.938z M168.975,241.107l5.306-15.007h163.434l5.307,15.007H168.975z M350.301,256.114
			l34.548,100.044H127.148l34.548-100.044H350.301z M177.243,211.094l33.167-96.043h91.177l33.167,96.043H177.243z M65.52,488.643
			c-2.299,6.501-9.461,9.918-15.96,7.62c-6.501-2.299-9.919-9.459-7.601-16.014l126.007-365.198h26.569L65.52,488.643z
			 M117.675,386.171l5.306-15.007h266.034l5.307,15.007H117.675z M469.552,489.862c-1.44,3.014-3.967,5.287-7.116,6.401
			c-3.147,1.115-6.543,0.933-9.557-0.505c-3.015-1.44-5.288-3.967-6.384-7.063L317.463,115.051h26.569l126.025,365.253
			C471.17,483.453,470.991,486.848,469.552,489.862z"/>
	</g>
</g>
<g>
</g>
<g>
</g>
<g>
</g>
<g>
</g>
<g>
</g>
<g>
</g>
<g>
</g>
<g>
</g>
<g>
</g>
<g>
</g>
<g>
</g>
<g>
</g>
<g>
</g>
<g>
</g>
<g>
</g>
</svg>
