<svg id="Livello_1" data-name="Livello 1" xmlns="http://www.w3.org/2000/svg" viewBox="0 0 23.91 17.29"><title>servizio_ariacondizionata</title><path d="M22.39,10.06H2.61A2.06,2.06,0,0,1,.55,8V2.25A2.07,2.07,0,0,1,2.61.18H22.39a2.07,2.07,0,0,1,2.06,2.07V8A2.06,2.06,0,0,1,22.39,10.06Zm1.24-7.81A1.24,1.24,0,0,0,22.39,1H2.61A1.24,1.24,0,0,0,1.37,2.25V8A1.25,1.25,0,0,0,2.61,9.24H22.39A1.25,1.25,0,0,0,23.63,8ZM3,6H22v.82H3ZM19.93,8H4.67V7.18H19.93ZM5.73,14.59l-.53-.53a.41.41,0,0,1,0-.58.39.39,0,0,1,.58,0l.71.7H6.8a1.26,1.26,0,0,1,.75-.75v-.32l-.7-.7a.41.41,0,0,1,.58-.58l.54.53.53-.53a.41.41,0,0,1,.58.58l-.7.7v.32a1.26,1.26,0,0,1,.75.75h.31l.71-.7a.39.39,0,0,1,.58,0,.41.41,0,0,1,0,.58l-.53.53.53.53a.41.41,0,0,1,0,.58.42.42,0,0,1-.29.12.4.4,0,0,1-.29-.12L9.44,15H9.13a1.26,1.26,0,0,1-.75.75v.32l.7.7a.41.41,0,0,1,0,.58.4.4,0,0,1-.29.12.42.42,0,0,1-.29-.12L8,16.82l-.54.53a.41.41,0,1,1-.58-.58l.7-.7v-.32A1.26,1.26,0,0,1,6.8,15H6.49l-.71.7a.4.4,0,0,1-.29.12.42.42,0,0,1-.29-.12.41.41,0,0,1,0-.58ZM8,15a.41.41,0,1,0-.42-.41A.41.41,0,0,0,8,15Zm6.42-.41-.53-.53a.41.41,0,0,1,0-.58.39.39,0,0,1,.58,0l.7.7h.32a1.26,1.26,0,0,1,.75-.75v-.32l-.7-.7a.41.41,0,0,1,.58-.58l.53.53.54-.53a.41.41,0,0,1,.58.58l-.71.7v.32a1.24,1.24,0,0,1,.75.75h.32l.7-.7a.4.4,0,0,1,.59,0,.41.41,0,0,1,0,.58l-.54.53.54.53a.41.41,0,0,1,0,.58.42.42,0,0,1-.3.12.42.42,0,0,1-.29-.12l-.7-.7h-.32a1.24,1.24,0,0,1-.75.75v.32l.71.7a.41.41,0,0,1,0,.58.42.42,0,0,1-.29.12.4.4,0,0,1-.29-.12l-.54-.53-.53.53a.41.41,0,1,1-.58-.58l.7-.7v-.32a1.26,1.26,0,0,1-.75-.75h-.32l-.7.7a.42.42,0,0,1-.29.12.4.4,0,0,1-.29-.12.41.41,0,0,1,0-.58Zm2.23.41a.41.41,0,0,0,0-.82.41.41,0,0,0,0,.82Z" transform="translate(-0.55 -0.18)"/></svg>