<svg viewBox="0 0 48 48" xmlns="http://www.w3.org/2000/svg" xmlns:xlink="http://www.w3.org/1999/xlink" >
<defs>



 <path fill="#000000" id="i-445" d="M25,43h2v4h-2V43z M25,40h2v-4h-2V40z M17,33h2v-4h-2V33z M17,40h2v-4h-2V40z M17,47h2v-4h-2V47z M25,33h2v-4h-2V33z M48,25 v1H12v-1c0-8.49,4.426-12.35,15.078-12.916c0.252-1.396,1.094-1.857,1.88-2.008C28.754,8.004,27.715,8,25,8H2v4H0V2h2v4h23 c2.752,0,5.588,0.004,5.956,4.061c0.814,0.135,1.709,0.582,1.968,2.043C45.289,12.979,48,19.48,48,25z M45.966,24 C45.504,17.273,40.269,14,30,14c-12.657,0-15.706,3.799-15.979,10H45.966z M41,40h2v-4h-2V40z M41,33h2v-4h-2V33z M33,47h2v-4h-2V47 z M41,47h2v-4h-2V47z M33,40h2v-4h-2V40z M33,33h2v-4h-2V33z"/> 
</defs>

<use x="0" y="0" xlink:href="#i-445"/>

</svg>