<svg id="Livello_1" data-name="Livello 1" xmlns="http://www.w3.org/2000/svg" viewBox="0 0 20.19 20.21"><title>servizio_setcortesia</title><path d="M21,15.28a5.32,5.32,0,0,1-5.5,5.5H12A5.45,5.45,0,0,1,7.84,19H3.68a.49.49,0,0,1-.51-.47V16.19a1,1,0,0,1-.93-.88L.8,1.57A.81.81,0,0,1,1,.92,1.13,1.13,0,0,1,1.85.57H9.52a1.13,1.13,0,0,1,.83.35.85.85,0,0,1,.22.65l-.92,8.7a6,6,0,0,1,1.18-.37V7.2a1,1,0,0,1,.94-.94H15.7a1,1,0,0,1,.94.94V9.9A5.27,5.27,0,0,1,21,15.28ZM9.63,1.53a.29.29,0,0,0-.11,0H1.85a.24.24,0,0,0-.11,0L3.17,15.21a.11.11,0,0,0,.12.07.44.44,0,0,1,.44.4h2.8c0-.13,0-.26,0-.4a5.37,5.37,0,0,1,2.16-4.43ZM15.7,7.2H11.77V9.81l.23,0h3.48l.22,0Zm-.22,3.53H12a4.36,4.36,0,0,0-4.57,4.55A4.37,4.37,0,0,0,12,19.84h3.48a4.37,4.37,0,0,0,4.57-4.56A4.36,4.36,0,0,0,15.48,10.73Zm.56,5.7a1.36,1.36,0,0,1,.13.3A1.69,1.69,0,0,1,16,18.35a1.11,1.11,0,0,1-.87.39l-.29,0a2.24,2.24,0,0,1-1.33-.7l-.23.21a1.7,1.7,0,0,1-1.6.34,1.17,1.17,0,0,1-.7-1,2.28,2.28,0,0,1,.23-1.46,2.43,2.43,0,0,1-.35-.2,1.69,1.69,0,0,1-.82-1.41,1.15,1.15,0,0,1,.73-1,2.33,2.33,0,0,1,1.53-.22,2.11,2.11,0,0,1,.09-.45,1.67,1.67,0,0,1,1.08-1.22,1.16,1.16,0,0,1,1.16.39,2.33,2.33,0,0,1,.7,1.48,1.84,1.84,0,0,1,.41-.05,1.68,1.68,0,0,1,1.49.65,1.17,1.17,0,0,1,0,1.22A2.28,2.28,0,0,1,16,16.43Zm.41-1.83a.89.89,0,0,0-.66-.22,1.85,1.85,0,0,0-.78.23.47.47,0,0,1-.68-.55A1.29,1.29,0,0,0,14,12.67c-.07-.07-.17-.15-.25-.13a.84.84,0,0,0-.41.56,1.74,1.74,0,0,0,0,.82.47.47,0,0,1-.2.49.47.47,0,0,1-.52,0,1.27,1.27,0,0,0-1.38,0c-.08,0-.19.11-.2.19a.82.82,0,0,0,.41.57,1.69,1.69,0,0,0,.7.26.48.48,0,0,1,.38.33.47.47,0,0,1-.14.49,1.29,1.29,0,0,0-.41,1.23c0,.1,0,.22.12.25a.82.82,0,0,0,.66-.21,1.8,1.8,0,0,0,.44-.51.45.45,0,0,1,.41-.25h0A.48.48,0,0,1,14,17a1.28,1.28,0,0,0,1,.79c.1,0,.23,0,.28,0a.86.86,0,0,0,0-.7,2,2,0,0,0-.4-.61.46.46,0,0,1-.1-.5.46.46,0,0,1,.42-.29,1.29,1.29,0,0,0,1.18-.77A.33.33,0,0,0,16.45,14.6Z" transform="translate(-0.79 -0.57)"/></svg>