<svg id="Livello_1" data-name="Livello 1" xmlns="http://www.w3.org/2000/svg" viewBox="0 0 18.72 25.6"><title>servizio_minibar</title><path d="M19.41,15.46l-.07.3a3.7,3.7,0,0,1-3.17,2.75v4.73h.43a2.14,2.14,0,0,1,2.13,2.13.42.42,0,0,1-.42.43H13.19a.43.43,0,0,1-.43-.43,2.14,2.14,0,0,1,2.13-2.13h.43V18.51a3.7,3.7,0,0,1-3.17-2.77l-.08-.31A3.68,3.68,0,0,1,12,14l.76-5.32a.42.42,0,0,1,.43-.36h5.12a.42.42,0,0,1,.42.36L19.49,14A3.56,3.56,0,0,1,19.41,15.46Zm-4.52,8.63a1.27,1.27,0,0,0-1.2.86h4.12a1.29,1.29,0,0,0-1.21-.86Zm-2-8.87.08.32a2.84,2.84,0,0,0,2.76,2.15h0a2.85,2.85,0,0,0,2.76-2.14l.07-.3a.25.25,0,0,0,0-.12H12.89A.28.28,0,0,1,12.9,15.22Zm5.75-1.09-.72-5H13.56l-.72,4.95v.17h5.81A.75.75,0,0,0,18.65,14.13ZM8.92,25.8H1.24a.43.43,0,0,1-.43-.43V12.45a5,5,0,0,1,2.56-4.4V.63A.43.43,0,0,1,3.8.2H6.36a.43.43,0,0,1,.43.43V8.05a5,5,0,0,1,2.56,4.4V25.37A.43.43,0,0,1,8.92,25.8Zm-3-24.75H4.23V2.33h1.7Zm0,2.14H4.23v3h1.7Zm2.56,9.26A4.18,4.18,0,0,0,6.17,8.69a.42.42,0,0,1-.24-.38V7H4.23V8.31A.42.42,0,0,1,4,8.69a4.19,4.19,0,0,0-2.32,3.76V25H8.49ZM3,13.43H7.21a.42.42,0,0,1,.43.42v7.68a.43.43,0,0,1-.43.43H3a.43.43,0,0,1-.43-.43V13.85A.42.42,0,0,1,3,13.43Zm.42,7.68H6.79V14.28H3.37Z" transform="translate(-0.81 -0.2)"/></svg>