<svg id="Livello_1" data-name="Livello 1" xmlns="http://www.w3.org/2000/svg" viewBox="0 0 19.02 15.42"><title>servizio_wifi</title><path d="M19.14,5.88a1,1,0,0,1-1.44,0,10.49,10.49,0,0,0-15.54,0,1,1,0,0,1-1.45,0,1.16,1.16,0,0,1,0-1.54,12.43,12.43,0,0,1,18.43,0A1.16,1.16,0,0,1,19.14,5.88Zm-2.8,1.46a1.15,1.15,0,0,1,0,1.55,1,1,0,0,1-.72.32,1,1,0,0,1-.72-.32A6.7,6.7,0,0,0,5,8.89a1,1,0,0,1-1.44,0,1.15,1.15,0,0,1,0-1.55A8.64,8.64,0,0,1,16.34,7.34Zm-2.75,2.95a1.17,1.17,0,0,1,0,1.55,1,1,0,0,1-1.44,0,3,3,0,0,0-4.45,0,1,1,0,0,1-1.44,0,1.15,1.15,0,0,1,0-1.55A4.94,4.94,0,0,1,13.59,10.29ZM9.93,12.76a1.46,1.46,0,0,1,0,2.91,1.46,1.46,0,0,1,0-2.91Z" transform="translate(-0.42 -0.25)"/></svg>